<svg t="1592400511468" class="icon" viewBox="0 0 1058 1024" version="1.1" xmlns="http://www.w3.org/2000/svg" p-id="2296" width="200" height="200"><path d="M855.872853 592.042667a200.226133 200.226133 0 0 1-163.259733-85.6064 198.4512 198.4512 0 0 1-326.485333 0 210.8416 210.8416 0 0 1-26.4192 30.549333 199.7824 199.7824 0 0 1-154.9312 54.306133A211.626667 211.626667 0 0 1 0.047787 376.763733a182.6816 182.6816 0 0 1 18.1248-79.325866l90.692266-187.733334A190.088533 190.088533 0 0 1 280.282453 0h497.425067a189.952 189.952 0 0 1 171.4176 109.636267l90.9312 188.3136A183.159467 183.159467 0 0 1 1058.18112 375.739733v6.178134a206.2336 206.2336 0 0 1-202.308267 210.1248z m0 0v71.68a200.226133 200.226133 0 0 1-163.259733-85.640534 198.417067 198.417067 0 0 1-326.485333 0 210.0224 210.0224 0 0 1-26.4192 30.72 199.7824 199.7824 0 0 1-154.9312 54.306134 193.570133 193.570133 0 0 1-113.732267-51.473067v220.535467A189.098667 189.098667 0 0 0 256.59392 1024H802.18112a189.098667 189.098667 0 0 0 185.582933-192.034133v-218.999467a197.495467 197.495467 0 0 1-131.720533 50.722133z m0 0" p-id="2297" fill="#BFCBD9"></path></svg>